<svg width="98" height="109" viewBox="0 0 98 109" fill="none" xmlns="http://www.w3.org/2000/svg">
<path d="M8.92067 97.8136L0 0L48.5419 0L48.5419 108.696L8.92067 97.8136Z" fill="#AC009B"/>
<path d="M8.92067 97.8136L0 0L48.5419 0L48.5419 108.696L8.92067 97.8136Z" fill="#A6120D"/>
<path d="M88.3422 97.7824L97.3848 0L48.1798 0L48.1798 108.661L88.3422 97.7824Z" fill="#DD1B16"/>
<path fill-rule="evenodd" clip-rule="evenodd" d="M87.7924 8.73283L80.1901 90.9419L56.9274 97.2429V97.2315L48.1798 99.5966V108.661L88.3422 97.7824L97.3848 0L48.1798 0V8.73283L56.9274 8.73283L87.7924 8.73283Z" fill="#AC009B"/>
<path fill-rule="evenodd" clip-rule="evenodd" d="M87.7924 8.73283L80.1901 90.9419L56.9274 97.2429V97.2315L48.1798 99.5966V108.661L88.3422 97.7824L97.3848 0L48.1798 0V8.73283L56.9274 8.73283L87.7924 8.73283Z" fill="#A6120D"/>
<path d="M60.4811 60.469L48.0769 66.3118H35.0031L28.8575 81.7954L17.4268 82.0082L48.0769 13.3263L60.4811 60.4693V60.469ZM59.282 57.5274L48.1594 35.3477L39.0357 57.1457H48.0765L59.282 57.5278V57.5274Z" fill="white"/>
<path d="M48.1802 13.3263L48.2642 35.282L58.8557 57.0314H48.2042L48.1802 66.139L62.9091 66.1527L69.7929 81.8047L80.9835 82.0082L48.1802 13.3263V13.3263Z" fill="white"/>
</svg>
