<svg width="60" height="84" viewBox="0 0 60 84" fill="none" xmlns="http://www.w3.org/2000/svg">
<g clip-path="url(#clip0)">
<path d="M29.8324 83.5672L5.52126 76.8551L0.103516 16.4226H59.6341L54.2108 76.8458L29.8324 83.5672V83.5672Z" fill="#264DE4"/>
<path d="M49.5671 72.999L54.2015 21.3645H29.8682V78.4303L49.5671 72.999V72.999Z" fill="#2965F1"/>
<path d="M12.5225 43.7773L13.1903 51.1891H29.8678V43.7773H12.5225Z" fill="#EBEBEB"/>
<path d="M11.1807 28.7766L11.8581 36.1884H29.8682V28.7766H11.1807V28.7766Z" fill="#EBEBEB"/>
<path d="M29.8689 63.027L29.8362 63.0356L21.5363 60.8067L21.0057 54.8955H13.5244L14.5684 66.5332L29.8346 70.7476L29.8689 70.7384V63.027Z" fill="#EBEBEB"/>
<path d="M14.1133 0H23.1394V3.75406H17.888V7.50811H23.1398V11.2619H14.1133V0Z" fill="white"/>
<path d="M24.9446 0H33.9709V3.26438H28.7193V3.9172H33.9709V11.4253H24.9448V7.99733H30.1964V7.3445H24.9443V0H24.9446Z" fill="white"/>
<path d="M35.7773 0H44.8037V3.26438H39.5521V3.9172H44.8037V11.4253H35.7773V7.99733H41.0289V7.3445H35.7776V0H35.7773Z" fill="white"/>
<path d="M47.1654 43.7782L48.5107 28.7766H29.842V36.1884H40.3434L39.6652 43.7782H29.842V51.19H39.0191L38.1538 60.8026L29.8418 63.0338V70.7447L45.1201 66.5337L45.2321 65.2814L46.9837 45.7685L47.1654 43.7782V43.7782Z" fill="white"/>
</g>
<defs>
<clipPath id="clip0">
<rect width="59.7383" height="83.7793" fill="white"/>
</clipPath>
</defs>
</svg>
