<svg width="65" height="65" viewBox="0 0 65 65" fill="none" xmlns="http://www.w3.org/2000/svg">
<g clip-path="url(#clip0)">
<path d="M42.7386 42.7397C48.6397 42.7397 53.4235 37.9559 53.4235 32.0548C53.4235 26.1537 48.6397 21.3699 42.7386 21.3699C36.8375 21.3699 32.0537 26.1537 32.0537 32.0548C32.0537 37.9559 36.8375 42.7397 42.7386 42.7397Z" fill="#19BCFE"/>
<path fill-rule="evenodd" clip-rule="evenodd" d="M21.3695 64.1095C24.2033 64.1095 26.921 62.9838 28.9248 60.98C30.9286 58.9762 32.0544 56.2585 32.0544 53.4246V42.7397H21.3695C18.5357 42.7397 15.8179 43.8655 13.8141 45.8693C11.8103 47.8731 10.6846 50.5908 10.6846 53.4246C10.6846 56.2585 11.8103 58.9762 13.8141 60.98C15.8179 62.9838 18.5357 64.1095 21.3695 64.1095V64.1095Z" fill="#09CF83"/>
<path fill-rule="evenodd" clip-rule="evenodd" d="M21.3695 42.7397H32.0544V21.3699H21.3695C18.5357 21.3699 15.8179 22.4956 13.8141 24.4994C11.8103 26.5032 10.6846 29.221 10.6846 32.0548C10.6846 34.8886 11.8103 37.6063 13.8141 39.6101C15.8179 41.6139 18.5357 42.7397 21.3695 42.7397V42.7397Z" fill="#A259FF"/>
<path fill-rule="evenodd" clip-rule="evenodd" d="M21.3695 21.3705H32.0544V0.000732422H21.3695C18.5357 0.000732422 15.8179 1.12646 13.8141 3.13027C11.8103 5.13407 10.6846 7.85182 10.6846 10.6856C10.6846 13.5194 11.8103 16.2372 13.8141 18.241C15.8179 20.2448 18.5357 21.3705 21.3695 21.3705V21.3705Z" fill="#F24E1E"/>
<path fill-rule="evenodd" clip-rule="evenodd" d="M42.7386 21.3698H32.0537V0H42.7386C45.5724 0 48.2901 1.12573 50.294 3.12953C52.2978 5.13334 53.4235 7.85109 53.4235 10.6849C53.4235 13.5187 52.2978 16.2365 50.294 18.2403C48.2901 20.2441 45.5724 21.3698 42.7386 21.3698Z" fill="#FF7262"/>
</g>
<defs>
<clipPath id="clip0">
<rect width="64.1094" height="64.1094" fill="white"/>
</clipPath>
</defs>
</svg>
