<svg width="57" height="79" viewBox="0 0 57 79" fill="none" xmlns="http://www.w3.org/2000/svg">
<g clip-path="url(#clip0)">
<path d="M55.9983 15.4233L50.9057 72.1686L28.0138 78.4809L5.18505 72.1773L0.0976562 15.4233H55.9983Z" fill="#E44D26"/>
<path d="M28.0479 73.6559L46.5456 68.5553L50.8974 20.0637H28.0479V73.6559Z" fill="#F16529"/>
<path d="M18.1471 33.9851H28.0471V27.0244H10.499L10.6664 28.8918L12.3866 48.0735H28.0471V41.1129H18.7867L18.1471 33.9851V33.9851Z" fill="#EBEBEB"/>
<path d="M19.7253 51.5542H12.7002L13.6806 62.4835L28.0159 66.4414L28.0481 66.4327V59.1907L28.0174 59.1988L20.2236 57.1056L19.7253 51.5542V51.5542Z" fill="#EBEBEB"/>
<path d="M5.29883 0H8.85521V3.49482H12.1085V0H15.6651V10.5832H12.1088V7.03932H8.85543V10.5832H5.29905V0H5.29883Z" fill="white"/>
<path d="M20.3413 3.50964H17.2109V0H27.0308V3.50964H23.8984V10.5832H20.342V3.50964H20.3418H20.3413Z" fill="white"/>
<path d="M28.5889 0H32.2971L34.5782 3.71865L36.8571 0H40.5668V10.5832H37.0249V5.33758L34.5782 9.10047H34.5168L32.0686 5.33758V10.5832H28.5889V0Z" fill="white"/>
<path d="M42.3371 0H45.8946V7.08509H50.8959V10.5832H42.3369V0H42.3371Z" fill="white"/>
<path d="M28.0237 48.0737H36.6411L35.8286 57.1011L28.0234 59.1965V66.4381L42.3701 62.4834L42.4753 61.3073L44.1201 42.9822L44.2908 41.113H28.0237V48.0737Z" fill="white"/>
<path d="M28.0234 33.968V33.9851H44.9273L45.0675 32.4206L45.3866 28.8918L45.5538 27.0244H28.0234V33.9683V33.968Z" fill="white"/>
</g>
<defs>
<clipPath id="clip0">
<rect width="56.0957" height="78.6797" fill="white"/>
</clipPath>
</defs>
</svg>
