<svg width="73" height="73" viewBox="0 0 73 73" fill="none" xmlns="http://www.w3.org/2000/svg">
<g clip-path="url(#clip0)">
<path d="M-0.000976562 -0.000732422H72.8506V72.8508H-0.000976562V-0.000732422Z" fill="#F7DF1E"/>
<path d="M19.1556 60.8796L24.7304 57.5056C25.8061 59.4126 26.7845 61.0261 29.1314 61.0261C31.381 61.0261 32.7996 60.1462 32.7996 56.7233V33.4456H39.6456V56.8201C39.6456 63.9109 35.4891 67.1385 29.4248 67.1385C23.9481 67.1385 20.7691 64.3022 19.1553 60.879" fill="black"/>
<path d="M43.3645 60.1466L48.9388 56.9193C50.4064 59.3157 52.3136 61.0761 55.6876 61.0761C58.5245 61.0761 60.3333 59.6577 60.3333 57.7016C60.3333 55.3544 58.475 54.5228 55.3452 53.154L53.6341 52.4198C48.6947 50.3177 45.4183 47.6768 45.4183 42.1019C45.4183 36.967 49.3304 33.0547 55.4434 33.0547C59.7957 33.0547 62.9255 34.5709 65.1748 38.5319L59.8441 41.9554C58.6702 39.8526 57.3993 39.0214 55.4431 39.0214C53.438 39.0214 52.1665 40.2929 52.1665 41.9554C52.1665 44.0092 53.438 44.841 56.372 46.1125L58.0834 46.8458C63.903 49.3401 67.1793 51.8828 67.1793 57.604C67.1793 63.7662 62.3381 67.1401 55.8341 67.1401C49.477 67.1401 45.3691 64.1082 43.3643 60.1469" fill="black"/>
</g>
<defs>
<clipPath id="clip0">
<rect width="72.8516" height="72.8516" fill="white"/>
</clipPath>
</defs>
</svg>
