<svg width="67" height="42" viewBox="0 0 67 42" fill="none" xmlns="http://www.w3.org/2000/svg">
<path d="M15.7939 10.6958H28.4185V11.7149H16.9511V19.3844H27.7346V20.4034H16.9511V28.8238H28.55V29.8428H15.7939V10.6958ZM29.5494 10.6958H30.8908L36.8349 19.1162L42.9105 10.6958L51.1742 0L37.5976 20.0012L44.5937 29.8428H43.1998L36.8349 20.8861L30.4437 29.8428H29.076L36.1247 20.0012L29.5494 10.6958ZM45.0935 11.7149V10.6958H59.4802V11.7149H52.8523V29.8428H51.6951V11.7149H45.0935ZM0 10.6958H1.44657L21.3939 41.0094L13.1506 29.8428L1.20986 12.1439L1.15725 29.8428H0V10.6958ZM59.3636 28.5163C59.1272 28.5163 58.9499 28.3302 58.9499 28.0898C58.9499 27.8494 59.1272 27.6633 59.3636 27.6633C59.6029 27.6633 59.7774 27.8494 59.7774 28.0898C59.7774 28.3302 59.6029 28.5163 59.3636 28.5163ZM60.5008 27.3943H61.12C61.1285 27.7349 61.3733 27.9639 61.7336 27.9639C62.1361 27.9639 62.3641 27.7177 62.3641 27.2569V24.3374H62.9946V27.2598C62.9946 28.0898 62.5217 28.5678 61.7392 28.5678C61.0046 28.5678 60.5008 28.1041 60.5008 27.3943ZM63.8193 27.3571H64.4442C64.4977 27.7492 64.8748 27.9982 65.4181 27.9982C65.9247 27.9982 66.2963 27.732 66.2963 27.3657C66.2963 27.0508 66.0598 26.8619 65.5222 26.7331L64.9987 26.6043C64.264 26.4297 63.9291 26.0691 63.9291 25.4623C63.9291 24.7267 64.5202 24.2373 65.4068 24.2373C66.2315 24.2373 66.8339 24.7267 66.8705 25.4222H66.2569C66.1977 25.0415 65.8712 24.804 65.3984 24.804C64.9002 24.804 64.568 25.0473 64.568 25.4194C64.568 25.7142 64.7819 25.883 65.3111 26.009L65.7586 26.1206C66.5918 26.3181 66.9352 26.6616 66.9352 27.2827C66.9352 28.0726 66.3328 28.5678 65.3702 28.5678C64.4695 28.5678 63.8644 28.0955 63.8193 27.3571Z" fill="white"/>
</svg>
