<svg width="79" height="70" viewBox="0 0 79 70" fill="none" xmlns="http://www.w3.org/2000/svg">
<path d="M64.6904 22.645C63.853 22.3583 63.0086 22.0926 62.1579 21.8484C62.3008 21.2655 62.4323 20.6898 62.5491 20.1242C64.4663 10.8357 63.213 3.35265 58.932 0.888889C54.8274 -1.47304 48.1148 0.989807 41.3354 6.87836C40.6673 7.45974 40.014 8.05788 39.3761 8.6722C38.9491 8.26369 38.5145 7.86312 38.0727 7.47068C30.9675 1.17447 23.8458 -1.47917 19.5694 0.991648C15.4686 3.36093 14.2542 10.3955 15.9803 19.1984C16.152 20.0702 16.3459 20.9376 16.5618 21.7996C15.5537 22.0855 14.5809 22.3898 13.65 22.7137C5.31979 25.6124 0 30.155 0 34.8669C0 39.7333 5.71104 44.6146 14.3873 47.5743C15.0907 47.8133 15.8 48.0347 16.5144 48.2384C16.2824 49.1668 16.0764 50.1015 15.8967 51.0414C14.2512 59.6916 15.5362 66.5599 19.626 68.9142C23.8501 71.3454 30.9399 68.8467 37.8431 62.8238C38.4029 62.3341 38.9503 61.8306 39.4849 61.3137C40.1757 61.9789 40.8849 62.6247 41.6117 63.2504C48.2989 68.9933 54.9031 71.3123 58.9889 68.9516C63.209 66.5133 64.5807 59.1349 62.7999 50.158C62.6596 49.4547 62.5023 48.755 62.3281 48.0593C62.826 47.912 63.3147 47.7605 63.7911 47.6028C72.811 44.6204 78.6797 39.7984 78.6797 34.8669C78.6797 30.1378 73.1881 25.5646 64.6904 22.645ZM62.7341 44.4188C62.3039 44.5609 61.8625 44.698 61.4126 44.8314C60.4168 41.6851 59.0731 38.3398 57.4285 34.8831C58.9978 31.5089 60.2898 28.2062 61.2577 25.0805C62.0626 25.313 62.8436 25.5581 63.5965 25.8167C70.8775 28.3185 75.3186 32.0169 75.3186 34.8669C75.3186 37.9024 70.5222 41.8431 62.7341 44.4188ZM59.5027 50.8095C60.2902 54.7788 60.4023 58.3677 59.8808 61.1735C59.4124 63.6946 58.4701 65.3753 57.3046 66.0486C54.8253 67.481 49.5227 65.6191 43.804 60.7075C43.1279 60.1258 42.4682 59.5253 41.8256 58.907C44.0428 56.4871 46.2584 53.6739 48.4209 50.5494C52.2246 50.2126 55.818 49.6617 59.0768 48.9099C59.2372 49.5562 59.3798 50.1899 59.5027 50.8095ZM26.8236 65.801C24.4012 66.6547 22.4717 66.6792 21.3053 66.0081C18.8235 64.5796 17.7918 59.0646 19.1991 51.6672C19.3664 50.7931 19.5579 49.9237 19.7735 49.0602C22.9963 49.7718 26.5636 50.2835 30.3762 50.5921C32.5534 53.6494 34.833 56.4594 37.1304 58.9201C36.6421 59.3916 36.1423 59.8511 35.6314 60.298C32.5786 62.9612 29.5196 64.8507 26.8236 65.801ZM15.4747 44.4001C11.6381 43.0913 8.46975 41.3904 6.29806 39.5343C4.34644 37.8665 3.36141 36.2104 3.36141 34.8669C3.36141 32.0074 7.63254 28.3602 14.7564 25.8814C15.621 25.5808 16.5258 25.2971 17.4647 25.0308C18.4495 28.2271 19.7409 31.5691 21.2995 34.9484C19.7206 38.3778 18.4107 41.7732 17.4165 45.0072C16.7643 44.8207 16.1169 44.6183 15.4747 44.4001ZM19.279 18.5539C17.8004 11.012 18.7823 5.32286 21.2537 3.89497C23.8857 2.37414 29.7062 4.54251 35.8411 9.97923C36.2411 10.3346 36.6347 10.6971 37.0216 11.0666C34.7355 13.5166 32.4769 16.3058 30.319 19.345C26.6186 19.6874 23.0765 20.237 19.8199 20.9735C19.6193 20.1718 19.4389 19.3648 19.279 18.5539ZM53.2179 26.9182C52.4487 25.5921 51.651 24.2828 50.8252 22.991C53.3356 23.3078 55.7409 23.7284 57.9995 24.2425C57.3215 26.4118 56.4763 28.6795 55.4815 31.0047C54.7543 29.6276 53.9996 28.2652 53.2179 26.9182ZM39.3776 13.4641C40.9279 15.1405 42.4806 17.0119 44.0078 19.0426C40.9097 18.8966 37.8066 18.8959 34.7085 19.0407C36.2372 17.0288 37.8031 15.1598 39.3776 13.4641ZM25.4486 26.9412C24.6766 28.2773 23.936 29.6313 23.2274 31.0019C22.2488 28.6851 21.4113 26.4069 20.7275 24.2069C22.9723 23.7057 25.3662 23.2959 27.8606 22.9848C27.0257 24.2845 26.2214 25.6039 25.4486 26.9412ZM27.9322 46.9875C25.3551 46.7004 22.9253 46.3118 20.6811 45.824C21.3757 43.5848 22.2316 41.2582 23.2314 38.8916C23.9429 40.2633 24.6865 41.618 25.4618 42.9548C26.259 44.329 27.0846 45.675 27.9322 46.9875ZM39.4705 56.5058C37.8772 54.7905 36.2882 52.8926 34.7365 50.8516C36.2431 50.9105 37.7789 50.9405 39.3398 50.9405C40.9436 50.9405 42.5288 50.9046 44.0892 50.8353C42.5571 52.9132 41.0103 54.8138 39.4705 56.5058ZM55.5131 38.7708C56.5649 41.1634 57.4512 43.4778 58.155 45.6786C55.8739 46.1983 53.4109 46.6167 50.8157 46.9274C51.6473 45.6116 52.4526 44.2795 53.2311 42.9318C54.0226 41.5618 54.7835 40.1745 55.5131 38.7708ZM50.3197 41.2557C49.1278 43.322 47.869 45.3492 46.5452 47.3338C44.1472 47.5033 41.7439 47.5875 39.3398 47.5863C36.8912 47.5863 34.5096 47.5102 32.2163 47.3617C30.8579 45.3817 29.575 43.351 28.3705 41.2741C27.1716 39.2082 26.0521 37.0976 25.0137 34.9469C26.0494 32.7957 27.1659 30.6841 28.3606 28.6167C29.555 26.5487 30.8273 24.527 32.1754 22.5554C34.5152 22.3787 36.9146 22.2867 39.3395 22.2867C41.7755 22.2867 44.1783 22.3796 46.5175 22.5576C47.852 24.5262 49.1165 26.5412 50.3086 28.5989C51.5074 30.6618 52.6386 32.7631 53.7004 34.8994C52.6495 37.0575 51.5218 39.1777 50.3197 41.2557ZM57.2533 3.79498C59.8878 5.31152 60.9125 11.4271 59.2572 19.4469C59.1514 19.9585 59.0328 20.4797 58.9037 21.0082C55.6391 20.2561 52.0946 19.6969 48.3834 19.3493C46.2216 16.2767 43.9813 13.4832 41.7325 11.0648C42.3219 10.4978 42.9253 9.94547 43.5421 9.40838C49.3509 4.36337 54.7798 2.37138 57.2533 3.79498ZM39.3398 27.8547C43.22 27.8547 46.3657 30.9942 46.3657 34.8669C46.3657 38.7395 43.22 41.879 39.3398 41.879C35.4596 41.879 32.314 38.7395 32.314 34.8669C32.314 30.9942 35.4596 27.8547 39.3398 27.8547Z" fill="#00D8FF"/>
</svg>
