<svg width="1024" height="1024" viewBox="0 0 1024 1024" fill="none" xmlns="http://www.w3.org/2000/svg">
<rect width="1024" height="1024" fill="#274C77"/>
<path d="M254 512C254 688.179 396.166 831 571.538 831H730.308C752.229 831 770 813.147 770 791.125V671.5C770 649.478 752.229 631.625 730.308 631.625H709.138C698.908 631.625 690.838 640.072 688.481 650.072C680.195 685.223 648.753 711.375 611.231 711.375C573.709 711.375 542.267 685.223 533.981 650.072C531.623 640.072 523.553 631.625 513.323 631.625H452.462C430.54 631.625 412.769 613.772 412.769 591.75V489.343C412.769 467.321 430.54 449.468 452.462 449.468H505.016C515.543 449.468 525.638 445.267 533.082 437.789L606.604 363.929C614.048 356.451 624.144 352.249 634.671 352.249H730.308C752.229 352.249 770 334.397 770 312.374V232.875C770 210.853 752.229 193 730.308 193H571.538C396.166 193 254 335.822 254 512Z" fill="white"/>
<path fill-rule="evenodd" clip-rule="evenodd" d="M611.231 671.5C633.152 671.5 650.923 653.647 650.923 631.625C650.923 609.603 633.152 591.75 611.231 591.75C589.309 591.75 571.538 609.603 571.538 631.625C571.538 653.647 589.309 671.5 611.231 671.5Z" fill="white"/>
</svg>
