<svg width="1024" height="1024" viewBox="0 0 1024 1024" fill="none" xmlns="http://www.w3.org/2000/svg">
<g clip-path="url(#clip0_1_35)">
<path d="M0 0H1024V1024H0V0Z" fill="#295BD4"/>
<path d="M0 0H1024V1024H0V0Z" fill="url(#paint0_linear_1_35)" style="mix-blend-mode:overlay"/>
<path d="M0 0H1024V1024H0V0Z" fill="#004BFF"/>
<path d="M0 0H1024V1024H0V0Z" fill="url(#paint1_linear_1_35)" style="mix-blend-mode:overlay"/>
<path d="M0 0H1024V1024H0V0Z" fill="black" fill-opacity="0.07" style="mix-blend-mode:overlay"/>
<path d="M264.17 559.407L157.479 565.084C157.479 565.084 188.861 785.291 254.787 785.291H373.593C305.749 785.291 267.627 601.044 264.17 559.407Z" fill="url(#paint2_linear_1_35)"/>
<path d="M388.127 402.225H521.284C474.422 402.225 456.804 785.291 377.976 785.291H248.558C319.611 785.291 332.466 402.225 388.127 402.225Z" fill="#E65605"/>
<path d="M388.127 402.225H521.284C474.422 402.225 456.804 785.291 377.976 785.291H248.558C319.611 785.291 332.466 402.225 388.127 402.225Z" fill="black" fill-opacity="0.3"/>
<path d="M388.127 402.225H521.284C474.422 402.225 456.804 785.291 377.976 785.291H248.558C319.611 785.291 332.466 402.225 388.127 402.225Z" fill="url(#paint3_linear_1_35)" fill-opacity="0.5"/>
<path d="M388.127 402.225H521.284C474.422 402.225 456.804 785.291 377.976 785.291H248.558C319.611 785.291 332.466 402.225 388.127 402.225Z" fill="url(#paint4_linear_1_35)" fill-opacity="0.5" style="mix-blend-mode:darken"/>
<path d="M514.029 402.225L377.635 402.225C424.773 402.225 436.344 785.291 540.999 785.291H671.18C599.708 785.291 570.018 402.225 514.029 402.225Z" fill="url(#paint5_linear_1_35)"/>
<path d="M699.286 212.773H864.529C865.104 212.773 865.575 212.97 865.556 213.545C864.322 251.124 782.26 785.165 678.156 785.165H534.883C658.105 720.245 699.286 212.773 699.286 212.773Z" fill="#FFB800" fill-opacity="0.99"/>
<path d="M699.286 212.773H864.529C865.104 212.773 865.575 212.97 865.556 213.545C864.322 251.124 782.26 785.165 678.156 785.165H534.883C658.105 720.245 699.286 212.773 699.286 212.773Z" fill="url(#paint6_linear_1_35)" fill-opacity="0.5" style="mix-blend-mode:overlay"/>
<path d="M699.286 212.773H864.529C865.104 212.773 865.575 212.97 865.556 213.545C864.322 251.124 782.26 785.165 678.156 785.165H534.883C658.105 720.245 699.286 212.773 699.286 212.773Z" fill="url(#paint7_linear_1_35)"/>
</g>
<defs>
<linearGradient id="paint0_linear_1_35" x1="1024" y1="0" x2="636.708" y2="1225.26" gradientUnits="userSpaceOnUse">
<stop stop-color="white"/>
<stop offset="1" stop-color="white" stop-opacity="0"/>
</linearGradient>
<linearGradient id="paint1_linear_1_35" x1="1024" y1="0" x2="636.708" y2="1225.26" gradientUnits="userSpaceOnUse">
<stop offset="0.14418" stop-color="white"/>
<stop offset="0.848958" stop-color="white" stop-opacity="0"/>
</linearGradient>
<linearGradient id="paint2_linear_1_35" x1="180.464" y1="545.354" x2="253.391" y2="794.453" gradientUnits="userSpaceOnUse">
<stop stop-color="#FFDC27"/>
<stop offset="0.73245" stop-color="#F69312"/>
<stop offset="1" stop-color="#B2410C"/>
</linearGradient>
<linearGradient id="paint3_linear_1_35" x1="486.762" y1="511.313" x2="376.675" y2="584.304" gradientUnits="userSpaceOnUse">
<stop/>
<stop offset="1" stop-opacity="0"/>
</linearGradient>
<linearGradient id="paint4_linear_1_35" x1="346.7" y1="703.852" x2="344.872" y2="785.375" gradientUnits="userSpaceOnUse">
<stop stop-opacity="0"/>
<stop offset="1"/>
</linearGradient>
<linearGradient id="paint5_linear_1_35" x1="389.166" y1="578.153" x2="606.333" y2="799.723" gradientUnits="userSpaceOnUse">
<stop offset="0.109375" stop-color="#FFDC23"/>
<stop offset="0.489583" stop-color="#F69312"/>
<stop offset="0.814595" stop-color="#A6320A"/>
</linearGradient>
<linearGradient id="paint6_linear_1_35" x1="687.29" y1="163.292" x2="572.448" y2="789.969" gradientUnits="userSpaceOnUse">
<stop stop-color="white"/>
<stop offset="1" stop-color="white" stop-opacity="0"/>
</linearGradient>
<linearGradient id="paint7_linear_1_35" x1="732.264" y1="413.898" x2="478.493" y2="722.87" gradientUnits="userSpaceOnUse">
<stop stop-color="#FFDC27"/>
<stop offset="1" stop-color="#EE8F00"/>
</linearGradient>
<clipPath id="clip0_1_35">
<rect width="1024" height="1024" fill="white"/>
</clipPath>
</defs>
</svg>
